<?xml version="1.0" encoding="UTF-8" standalone="no"?>
<!DOCTYPE svg PUBLIC "-//W3C//DTD SVG 1.1//EN" "http://www.w3.org/Graphics/SVG/1.1/DTD/svg11.dtd">
<svg version="1.1" xmlns="http://www.w3.org/2000/svg" xmlns:xlink="http://www.w3.org/1999/xlink" preserveAspectRatio="xMidYMid meet" viewBox="0 0 304 304" width="304" height="304"><defs><path d="M303 152C303 235.34 235.34 303 152 303C68.66 303 1 235.34 1 152C1 68.66 68.66 1 152 1C235.34 1 303 68.66 303 152Z" id="c8eOKWnBi"></path><path d="M130.82 2.61L2.82 129.78" id="a59Yzpvz0J"></path><path d="M104.31 8.44L8.7 105.13" id="a1iRyZtPvn"></path><path d="M175 2.61L301.49 129.78" id="bi3sZ8gGr"></path><path d="M200.91 9.26L296.52 105.96" id="i2H7zuNRn"></path><path d="M130.31 301.67L2.31 174.5" id="d4e7dHFmJ"></path><path d="M101.54 294.06L8.76 200.69" id="a190n9dwp9"></path><path d="M203.77 294L293.66 202.75" id="b4S5k9nxDQ"></path><path d="M215.97 88.89L239.3 65.89" id="b2qsIAW2EI"></path><path d="M241.25 152.5C241.25 201.88 201.16 241.97 151.78 241.97C102.4 241.97 62.31 201.88 62.31 152.5C62.31 103.12 102.4 63.03 151.78 63.03C201.16 63.03 241.25 103.12 241.25 152.5Z" id="apwEA8K5Z"></path><path d="M218.85 152.26C218.85 188.82 189.17 218.49 152.61 218.49C116.06 218.49 86.38 188.82 86.38 152.26C86.38 115.71 116.06 86.03 152.61 86.03C189.17 86.03 218.85 115.71 218.85 152.26Z" id="icMwYDbD7"></path><path d="M205.01 191.74C194.34 183.74 188.24 179.05 186.69 177.66C185.14 176.28 183.44 176.33 181.57 177.82C179.86 179.48 178.32 180.92 176.93 182.14C175.54 183.37 175.7 185.13 177.41 187.42L191.65 205.98" id="a13N4yvwic"></path><path d="M175.25 301.67L301.74 176.3" id="atEL5pzZd"></path><path d="M89.59 89.13L66.01 65.89" id="a5IpAj1JV"></path><path d="M206.02 113.47C195.35 121.47 189.24 126.16 187.7 127.55C186.15 128.93 184.44 128.88 182.58 127.39C180.87 125.73 179.32 124.29 177.94 123.07C176.55 121.84 176.71 120.08 178.42 117.79L192.66 99.23" id="b1qIdYRLNR"></path><path d="M230.6 177.82C225.99 192.08 217.3 204.98 204.54 216.5C191.77 228.02 175.07 234.19 154.44 235.02C134.89 235.02 118.19 229.8 104.34 219.38C90.49 208.95 80.45 195.1 74.2 177.82" id="a3UTSK0Pww"></path><clipPath id="clipddkHXqivS"><use xlink:href="#a3UTSK0Pww" opacity="1"></use></clipPath><path d="M89.59 216.2L66.01 239.44" id="c5n41gFZkf"></path><path d="M238.5 238.09L214.92 215.05" id="acHdN4LFP"></path><path d="M73.78 109.08L81.75 113.42C83.98 110.18 85.37 108.15 85.93 107.34C88.93 102.95 92.36 98.87 96.16 95.15C97.23 94.09 95.5 95.8 96.76 94.56C99.94 91.44 103.43 88.67 107.18 86.28C107.95 85.79 109.86 84.57 112.91 82.63L108.93 73.93" id="aKYiYMPTr"></path><path d="M89.59 173.21L66.82 180.45" id="i1MOlb2qTh"></path><path d="M236.83 180.45L215.97 173.21" id="e54lE30b1M"></path><path d="M169.93 63.85L173.11 45.13C165.1 44.18 158.04 43.71 151.91 43.71C145.79 43.71 138.84 44.18 131.06 45.13L135.3 63.85" id="e2lHw9ff"></path><path d="M99.21 191.99C109.88 183.99 115.99 179.3 117.53 177.91C119.08 176.53 120.79 176.58 122.65 178.07C124.36 179.73 125.91 181.17 127.29 182.39C128.68 183.62 128.52 185.38 126.81 187.67L112.57 206.23" id="a35cisAJeV"></path><path d="M99.45 113.58C110.12 121.58 116.22 126.27 117.77 127.66C119.32 129.05 121.02 128.99 122.89 127.5C124.6 125.85 126.14 124.41 127.53 123.18C128.92 121.95 128.76 120.19 127.05 117.9L112.81 99.34" id="a3AwJ6wp6B"></path><path d="M132.2 97.82L143.8 94.62C145.26 98.83 146.16 101.46 146.53 102.51C149.66 111.59 162.33 112.05 166.11 103.22C166.44 102.45 167.27 100.51 168.6 97.42L180.2 101.82L168.2 125.02C169.5 125.82 170.31 126.33 170.64 126.53C181.18 133.06 186.49 145.5 183.91 157.63C183.74 158.46 183.3 160.52 182.6 163.82L140.6 121.82L132.2 97.82Z" id="c16uupiQUL"></path><path d="M153.64 156.94L127.96 130.94C127.86 131.07 127.79 131.16 127.76 131.19C126.19 133.21 124.74 135.31 123.41 137.5C123.4 137.52 123.37 137.57 123.32 137.66L167.56 181.9C167.56 181.9 167.56 181.9 167.56 181.9C169.59 180.4 171.54 178.82 173.42 177.14C173.45 177.11 173.52 177.04 173.64 176.94L160.52 163.9L153.64 156.94Z" id="a3MMgaezn"></path><path d="M153.24 157.18L148.52 162.14L153.24 157.18Z" id="a4ezTAgTF"></path><path d="M155.32 169.26L160.52 163.82" id="cFnRMpGBS"></path><path d="M137.65 123.74C137.47 123.82 137.36 123.87 137.32 123.89C134.77 125.06 132.37 126.52 130.15 128.24C130.15 128.24 130.15 128.24 130.15 128.24L176.49 174.15C176.49 174.15 176.49 174.15 176.49 174.15C178.26 172.21 179.85 170.11 181.23 167.88C181.24 167.86 181.27 167.81 181.32 167.74L162.57 148.9L137.65 123.74Z" id="b1JQRILRe1"></path><path d="M162.8 98.89C162.8 102.38 159.97 105.21 156.48 105.21C153 105.21 150.16 102.38 150.16 98.89C150.16 95.4 153 92.57 156.48 92.57C159.97 92.57 162.8 95.4 162.8 98.89Z" id="b9U5FLkTLy"></path><path d="M160.87 180.21L163.36 182.88C157.73 183.45 154.21 183.8 152.8 183.94C134.84 185.74 119.62 170.89 120.97 152.89C121.08 151.35 121.37 147.51 121.83 141.35L124.51 144.13" id="f1ttOhKJWi"></path><path d="M161.64 179.44L159.53 181.35L123.74 145.28L125.66 143.27L161.64 179.44Z" id="fRHKxEpkZ"></path><path d="M143.26 173.51L145.56 175.61L148.24 173.12L145.94 170.83L143.26 173.51Z" id="fc2vSWpD"></path><path d="M138.67 168.72L140.97 171.21L143.74 168.63L141.35 166.04L138.67 168.72Z" id="f4ujCK8Qdg"></path><path d="M126.81 133.12L128.34 134.66L126.23 137.33L124.6 135.8" id="a2Bd63Rmsq"></path><path d="M135.42 125.18L136.76 126.81L134.08 128.72L132.26 127" id="e5ubTHPAr6"></path><path d="M234.65 134.69L222.01 137.29" id="b1pQHPlXfG"></path><path d="M232.16 126.71L220.03 130.67" id="h2wBmkIBlk"></path><path d="M229.62 119.34L217.8 124.42" id="bambQXSUZt"></path><path d="M122.33 185.01C122.33 186.29 121.22 187.34 119.84 187.34C118.47 187.34 117.35 186.29 117.35 185.01C117.35 183.72 118.47 182.68 119.84 182.68C121.22 182.68 122.33 183.72 122.33 185.01Z" id="c4ptNRjFG6"></path><clipPath id="clipayTZJMnpX"><use xlink:href="#c4ptNRjFG6" opacity="1"></use></clipPath><path d="M125.57 120.82C125.57 123.58 123.19 125.82 120.27 125.82C117.34 125.82 114.97 123.58 114.97 120.82C114.97 118.06 117.34 115.82 120.27 115.82C123.19 115.82 125.57 118.06 125.57 120.82Z" id="c2heDv6si"></path><clipPath id="clipc1buTMOkeX"><use xlink:href="#c2heDv6si" opacity="1"></use></clipPath><path d="M122.95 120.79C122.95 122.35 121.65 123.62 120.07 123.62C118.48 123.62 117.18 122.35 117.18 120.79C117.18 119.22 118.48 117.95 120.07 117.95C121.65 117.95 122.95 119.22 122.95 120.79Z" id="bC46fgg3J"></path><clipPath id="clipc5TCvvyQr"><use xlink:href="#bC46fgg3J" opacity="1"></use></clipPath><path d="M188.53 120.86C188.53 122.92 186.68 124.6 184.39 124.6C182.1 124.6 180.24 122.92 180.24 120.86C180.24 118.79 182.1 117.11 184.39 117.11C186.68 117.11 188.53 118.79 188.53 120.86Z" id="a1yupBJa3x"></path><path d="M186.28 120.88C186.28 121.77 185.47 122.5 184.46 122.5C183.45 122.5 182.63 121.77 182.63 120.88C182.63 119.99 183.45 119.26 184.46 119.26C185.47 119.26 186.28 119.99 186.28 120.88Z" id="c2QS3OgRwv"></path><path d="M189.19 185.02C189.19 187.61 187.15 189.71 184.65 189.71C182.14 189.71 180.1 187.61 180.1 185.02C180.1 182.44 182.14 180.34 184.65 180.34C187.15 180.34 189.19 182.44 189.19 185.02Z" id="aNsrzwGu"></path><path d="M186.99 184.92C186.99 186.35 185.82 187.51 184.39 187.51C182.95 187.51 181.79 186.35 181.79 184.92C181.79 183.5 182.95 182.34 184.39 182.34C185.82 182.34 186.99 183.5 186.99 184.92Z" id="dtSzux2YU"></path><path d="M124.02 185.02C124.02 187.4 122.14 189.33 119.84 189.33C117.54 189.33 115.67 187.4 115.67 185.02C115.67 182.65 117.54 180.72 119.84 180.72C122.14 180.72 124.02 182.65 124.02 185.02Z" id="aaTZhnBGs"></path><path d="" id="bzyJFRRFQ"></path><path d="M161.49 148.74L156.49 153.49" id="bmuUckymQ"></path><path d="M168.82 155.57L163.82 160.57" id="e2RsBJYwoG"></path><path d="M218.7 151.74C218.7 188.29 189.02 217.97 152.47 217.97C115.91 217.97 86.24 188.29 86.24 151.74C86.24 115.18 115.91 85.5 152.47 85.5C189.02 85.5 218.7 115.18 218.7 151.74Z" id="d3Cb9w7RBi"></path></defs><g><g><g><use xlink:href="#c8eOKWnBi" opacity="1" fill="#ffffff" fill-opacity="1"></use><g><use xlink:href="#c8eOKWnBi" opacity="1" fill-opacity="0" stroke="#000000" stroke-width="2" stroke-opacity="1"></use></g></g><g><g><use xlink:href="#a59Yzpvz0J" opacity="1" fill-opacity="0" stroke="#000000" stroke-width="2" stroke-opacity="1"></use></g></g><g><g><use xlink:href="#a1iRyZtPvn" opacity="1" fill-opacity="0" stroke="#060b04" stroke-width="2" stroke-opacity="1"></use></g></g><g><g><use xlink:href="#bi3sZ8gGr" opacity="1" fill-opacity="0" stroke="#000000" stroke-width="2" stroke-opacity="1"></use></g></g><g><g><use xlink:href="#i2H7zuNRn" opacity="1" fill-opacity="0" stroke="#060b04" stroke-width="2" stroke-opacity="1"></use></g></g><g><g><use xlink:href="#d4e7dHFmJ" opacity="1" fill-opacity="0" stroke="#000000" stroke-width="2" stroke-opacity="1"></use></g></g><g><g><use xlink:href="#a190n9dwp9" opacity="1" fill-opacity="0" stroke="#060b04" stroke-width="2" stroke-opacity="1"></use></g></g><g><g><use xlink:href="#b4S5k9nxDQ" opacity="1" fill-opacity="0" stroke="#060b04" stroke-width="2" stroke-opacity="1"></use></g></g><g><g><use xlink:href="#b2qsIAW2EI" opacity="1" fill-opacity="0" stroke="#060b04" stroke-width="2" stroke-opacity="1"></use></g></g><g><use xlink:href="#apwEA8K5Z" opacity="1" fill="#ff7f00" fill-opacity="1"></use><g><use xlink:href="#apwEA8K5Z" opacity="1" fill-opacity="0" stroke="#060b04" stroke-width="2" stroke-opacity="1"></use></g></g><g><use xlink:href="#icMwYDbD7" opacity="1" fill="#ffffff" fill-opacity="1"></use><g><use xlink:href="#icMwYDbD7" opacity="1" fill-opacity="0" stroke="#060b04" stroke-width="2" stroke-opacity="1"></use></g></g><g><use xlink:href="#a13N4yvwic" opacity="1" fill="#ff7f00" fill-opacity="1"></use><g><use xlink:href="#a13N4yvwic" opacity="1" fill-opacity="0" stroke="#060b04" stroke-width="2" stroke-opacity="1"></use></g></g><g><g><use xlink:href="#atEL5pzZd" opacity="1" fill-opacity="0" stroke="#000000" stroke-width="2" stroke-opacity="1"></use></g></g><g><g><use xlink:href="#a5IpAj1JV" opacity="1" fill-opacity="0" stroke="#060b04" stroke-width="2" stroke-opacity="1"></use></g></g><g><use xlink:href="#b1qIdYRLNR" opacity="1" fill="#ff7f00" fill-opacity="1"></use><g><use xlink:href="#b1qIdYRLNR" opacity="1" fill-opacity="0" stroke="#060b04" stroke-width="2" stroke-opacity="1"></use></g></g><g><g clip-path="url(#clipddkHXqivS)"><use xlink:href="#a3UTSK0Pww" opacity="1" fill-opacity="0" stroke="#000000" stroke-width="4" stroke-opacity="1"></use></g></g><g><g><use xlink:href="#c5n41gFZkf" opacity="1" fill-opacity="0" stroke="#060b04" stroke-width="2" stroke-opacity="1"></use></g></g><g><g><use xlink:href="#acHdN4LFP" opacity="1" fill-opacity="0" stroke="#060b04" stroke-width="2" stroke-opacity="1"></use></g></g><g><g><use xlink:href="#aKYiYMPTr" opacity="1" fill-opacity="0" stroke="#060b04" stroke-width="2" stroke-opacity="1"></use></g></g><g><g><use xlink:href="#i1MOlb2qTh" opacity="1" fill-opacity="0" stroke="#060b04" stroke-width="2" stroke-opacity="1"></use></g></g><g><g><use xlink:href="#e54lE30b1M" opacity="1" fill-opacity="0" stroke="#060b04" stroke-width="2" stroke-opacity="1"></use></g></g><g><g><use xlink:href="#e2lHw9ff" opacity="1" fill-opacity="0" stroke="#060b04" stroke-width="2" stroke-opacity="1"></use></g></g><g><use xlink:href="#a35cisAJeV" opacity="1" fill="#ff7f00" fill-opacity="1"></use><g><use xlink:href="#a35cisAJeV" opacity="1" fill-opacity="0" stroke="#060b04" stroke-width="2" stroke-opacity="1"></use></g></g><g><use xlink:href="#a3AwJ6wp6B" opacity="1" fill="#ff7f00" fill-opacity="1"></use><g><use xlink:href="#a3AwJ6wp6B" opacity="1" fill-opacity="0" stroke="#060b04" stroke-width="2" stroke-opacity="1"></use></g></g><g><use xlink:href="#c16uupiQUL" opacity="1" fill="#bbbbbb" fill-opacity="1"></use><g><use xlink:href="#c16uupiQUL" opacity="1" fill-opacity="0" stroke="#101111" stroke-width="2" stroke-opacity="1"></use></g></g><g><use xlink:href="#a3MMgaezn" opacity="1" fill="#bbbbbb" fill-opacity="1"></use><g><use xlink:href="#a3MMgaezn" opacity="1" fill-opacity="0" stroke="#101111" stroke-width="2" stroke-opacity="1"></use></g></g><g><g><use xlink:href="#a4ezTAgTF" opacity="1" fill-opacity="0" stroke="#101111" stroke-width="2" stroke-opacity="1"></use></g></g><g><g><use xlink:href="#cFnRMpGBS" opacity="1" fill-opacity="0" stroke="#101111" stroke-width="2" stroke-opacity="1"></use></g></g><g><use xlink:href="#b1JQRILRe1" opacity="1" fill="#bbbbbb" fill-opacity="1"></use><g><use xlink:href="#b1JQRILRe1" opacity="1" fill-opacity="0" stroke="#101111" stroke-width="2" stroke-opacity="1"></use></g></g><g><use xlink:href="#b9U5FLkTLy" opacity="1" fill="#bbbbbb" fill-opacity="1"></use><g><use xlink:href="#b9U5FLkTLy" opacity="1" fill-opacity="0" stroke="#101111" stroke-width="2" stroke-opacity="1"></use></g></g><g><use xlink:href="#f1ttOhKJWi" opacity="1" fill="#bbbbbb" fill-opacity="1"></use><g><use xlink:href="#f1ttOhKJWi" opacity="1" fill-opacity="0" stroke="#101111" stroke-width="2" stroke-opacity="1"></use></g></g><g><use xlink:href="#fRHKxEpkZ" opacity="1" fill="#bbbbbb" fill-opacity="1"></use><g><use xlink:href="#fRHKxEpkZ" opacity="1" fill-opacity="0" stroke="#101111" stroke-width="1" stroke-opacity="1"></use></g></g><g><use xlink:href="#fc2vSWpD" opacity="1" fill="#0fd9d9" fill-opacity="1"></use><g><use xlink:href="#fc2vSWpD" opacity="1" fill-opacity="0" stroke="#101111" stroke-width="1" stroke-opacity="1"></use></g></g><g><use xlink:href="#f4ujCK8Qdg" opacity="1" fill="#d71c21" fill-opacity="1"></use><g><use xlink:href="#f4ujCK8Qdg" opacity="1" fill-opacity="0" stroke="#101111" stroke-width="1" stroke-opacity="1"></use></g></g><g><g><use xlink:href="#a2Bd63Rmsq" opacity="1" fill-opacity="0" stroke="#101111" stroke-width="1" stroke-opacity="1"></use></g></g><g><g><use xlink:href="#e5ubTHPAr6" opacity="1" fill-opacity="0" stroke="#101111" stroke-width="1" stroke-opacity="1"></use></g></g><g><g><use xlink:href="#b1pQHPlXfG" opacity="1" fill-opacity="0" stroke="#101111" stroke-width="2" stroke-opacity="1"></use></g></g><g><g><use xlink:href="#h2wBmkIBlk" opacity="1" fill-opacity="0" stroke="#101111" stroke-width="2" stroke-opacity="1"></use></g></g><g><g><use xlink:href="#bambQXSUZt" opacity="1" fill-opacity="0" stroke="#101111" stroke-width="2" stroke-opacity="1"></use></g></g><g><g clip-path="url(#clipayTZJMnpX)"><use xlink:href="#c4ptNRjFG6" opacity="1" fill-opacity="0" stroke="#101111" stroke-width="2" stroke-opacity="1"></use></g></g><g><g clip-path="url(#clipc1buTMOkeX)"><use xlink:href="#c2heDv6si" opacity="1" fill-opacity="0" stroke="#101111" stroke-width="2" stroke-opacity="1"></use></g></g><g><g clip-path="url(#clipc5TCvvyQr)"><use xlink:href="#bC46fgg3J" opacity="1" fill-opacity="0" stroke="#101111" stroke-width="2" stroke-opacity="1"></use></g></g><g><g><use xlink:href="#a1yupBJa3x" opacity="1" fill-opacity="0" stroke="#101111" stroke-width="1" stroke-opacity="1"></use></g></g><g><g><use xlink:href="#c2QS3OgRwv" opacity="1" fill-opacity="0" stroke="#101111" stroke-width="1" stroke-opacity="1"></use></g></g><g><g><use xlink:href="#aNsrzwGu" opacity="1" fill-opacity="0" stroke="#101111" stroke-width="1" stroke-opacity="1"></use></g></g><g><g><use xlink:href="#dtSzux2YU" opacity="1" fill-opacity="0" stroke="#101111" stroke-width="1" stroke-opacity="1"></use></g></g><g><g><use xlink:href="#aaTZhnBGs" opacity="1" fill-opacity="0" stroke="#101111" stroke-width="1" stroke-opacity="1"></use></g></g><g><g><use xlink:href="#bzyJFRRFQ" opacity="1" fill-opacity="0" stroke="#101111" stroke-width="1" stroke-opacity="1"></use></g></g><g><g><use xlink:href="#bmuUckymQ" opacity="1" fill-opacity="0" stroke="#101111" stroke-width="2" stroke-opacity="1"></use></g></g><g><g><use xlink:href="#e2RsBJYwoG" opacity="1" fill-opacity="0" stroke="#101111" stroke-width="2" stroke-opacity="1"></use></g></g><g><g><use xlink:href="#d3Cb9w7RBi" opacity="1" fill-opacity="0" stroke="#101111" stroke-width="2" stroke-opacity="1"></use></g></g></g></g></svg>